<?xml version="1.0" standalone="no"?>
<!DOCTYPE svg PUBLIC "-//W3C//DTD SVG 20010904//EN"
 "http://www.w3.org/TR/2001/REC-SVG-20010904/DTD/svg10.dtd">
<svg version="1.0" xmlns="http://www.w3.org/2000/svg"
 width="260.000000pt" height="260.000000pt" viewBox="0 0 260.000000 260.000000"
 preserveAspectRatio="xMidYMid meet">
<metadata>
Created by potrace 1.11, written by Peter Selinger 2001-2013
</metadata>
<g transform="translate(0.000000,260.000000) scale(0.100000,-0.100000)"
fill="#000000" stroke="none">
<path d="M1110 2575 c-365 -58 -685 -264 -887 -573 -392 -596 -225 -1395 375
-1789 595 -392 1397 -224 1789 375 392 596 224 1397 -375 1789 -265 174 -595
246 -902 198z m418 -461 c2 -14 -16 -47 -47 -88 -28 -37 -51 -71 -51 -75 0 -5
7 -14 15 -21 23 -19 18 -59 -13 -89 -15 -15 -33 -30 -41 -32 -10 -4 -7 -17 13
-57 15 -29 24 -57 21 -62 -4 -6 -22 -10 -41 -10 -33 0 -34 -1 -27 -27 5 -16 8
-151 8 -301 0 -149 0 -272 1 -272 1 0 35 16 77 35 92 43 140 46 163 10 15 -23
15 -27 -2 -56 -15 -24 -37 -37 -105 -63 -85 -32 -175 -82 -200 -112 -11 -13
-9 -14 17 -8 58 15 197 10 246 -9 158 -61 157 -253 -3 -402 -68 -62 -126 -85
-218 -85 -70 0 -116 16 -197 68 -49 30 -60 52 -44 82 13 24 44 26 95 5 93 -39
255 -7 328 65 45 46 47 73 6 111 -51 48 -163 65 -332 51 -86 -7 -103 -5 -128
10 -58 35 -25 97 97 184 69 49 67 45 78 191 l4 61 -67 12 c-128 22 -228 88
-275 182 -61 121 0 221 63 103 43 -81 149 -156 240 -171 l41 -7 0 104 c0 57
-3 134 -7 172 l-6 67 -33 0 c-42 0 -44 15 -8 76 15 25 25 46 23 47 -2 1 -17 9
-34 19 -40 22 -56 54 -44 87 6 14 16 29 22 33 8 5 2 17 -19 40 -43 45 -94 123
-94 142 0 15 26 16 238 14 233 -3 237 -3 240 -24z"/>
</g>
</svg>
